<svg xmlns="http://www.w3.org/2000/svg" viewBox="0 0 400 240" preserveAspectRatio="xMidYMid slice"><defs><radialGradient id="v" cx="50%" cy="45%" r="75%"><stop offset="60%" stop-color="#000" stop-opacity="0"/><stop offset="100%" stop-color="#000" stop-opacity="0.55"/></radialGradient></defs><rect width="400" height="240" fill="#16171c"/><g transform="rotate(-3 200 130)"><rect x="24" y="30" width="170" height="210" rx="8" fill="#000" opacity="0.4" transform="translate(4 6)"/><rect x="24" y="30" width="170" height="210" rx="8" fill="#5a1620"/><circle cx="109" cy="120" r="34" fill="none" stroke="#d9b45a" stroke-width="2.5"/><path d="M109 92 l8 22 h22 l-18 13 7 22 -19 -13 -19 13 7 -22 -18 -13 h22z" fill="#d9b45a" opacity="0.85" transform="scale(.6) translate(73 80)"/><text x="109" y="190" text-anchor="middle" font-family="Georgia, serif" font-size="13" fill="#d9b45a" letter-spacing="1.5">PASSEPORT</text><text x="109" y="206" text-anchor="middle" font-family="Georgia, serif" font-size="9" fill="#d9b45a" letter-spacing="1.5">DIPLOMATIQUE</text><g transform="rotate(6 291.0 135.0)"><rect x="210" y="46" width="170" height="190" fill="#000" opacity="0.35"/><rect x="206" y="40" width="170" height="190" fill="#e8dcc0"/><rect x="222" y="70" width="102" height="4" rx="2" fill="#5b5446" opacity="0.55"/><rect x="222" y="82" width="119" height="4" rx="2" fill="#5b5446" opacity="0.55"/><rect x="222" y="94" width="128" height="4" rx="2" fill="#5b5446" opacity="0.55"/><rect x="222" y="106" width="88" height="4" rx="2" fill="#5b5446" opacity="0.55"/><rect x="222" y="118" width="116" height="4" rx="2" fill="#5b5446" opacity="0.55"/><rect x="222" y="130" width="113" height="4" rx="2" fill="#5b5446" opacity="0.55"/><rect x="222" y="142" width="110" height="4" rx="2" fill="#5b5446" opacity="0.55"/><rect x="222" y="154" width="78" height="4" rx="2" fill="#5b5446" opacity="0.55"/><rect x="222" y="166" width="73" height="4" rx="2" fill="#5b5446" opacity="0.55"/><circle cx="330" cy="196" r="20" fill="#8c1c1c" opacity="0.9"/></g></g><rect width="400" height="240" fill="url(#v)"/></svg>